<svg width="23.333008" height="36.926758" viewBox="0 0 23.333 36.9268" fill="none" xmlns="http://www.w3.org/2000/svg" xmlns:xlink="http://www.w3.org/1999/xlink">
	<desc>
			Created with Pixso.
	</desc>
	<defs/>
	<path id="Rectangle (Stroke)" d="M5.83 3.33C4.45 3.33 3.33 4.45 3.33 5.83L3.33 31.09C3.33 32.47 4.45 33.59 5.83 33.59L17.5 33.59C18.88 33.59 20 32.47 20 31.09L20 5.83C20 4.45 18.88 3.33 17.5 3.33L17.36 3.33L16.95 4.3C16.69 4.92 16.08 5.33 15.41 5.33L7.91 5.33C7.24 5.33 6.63 4.92 6.37 4.3L5.97 3.33L5.83 3.33ZM0 5.83C0 2.61 2.61 0 5.83 0L17.5 0C20.72 0 23.33 2.61 23.33 5.83L23.33 31.09C23.33 34.31 20.72 36.92 17.5 36.92L5.83 36.92C2.61 36.92 0 34.31 0 31.09L0 5.83Z" fill="#FF5A30" fill-opacity="1.000000" fill-rule="evenodd"/>
</svg>
