<svg width="567.270508" height="146.048828" viewBox="0 0 567.271 146.049" fill="none" xmlns="http://www.w3.org/2000/svg" xmlns:xlink="http://www.w3.org/1999/xlink">
	<desc>
			Created with Pixso.
	</desc>
	<defs/>
	<path id="CREATEX CONSTRUCTION" d="M7.86 46.71Q14.11 52.04 24.9 52.04Q30.6 52.04 34.91 50.9Q39.23 49.74 41.6 48.3L38.51 39.3Q37.58 39.74 36.42 40.25Q35.27 40.74 33.76 41.15Q32.25 41.53 30.3 41.83Q28.37 42.11 25.91 42.11Q22.02 42.11 19.28 40.86Q16.85 39.74 15.23 37.89Q15.03 37.67 14.85 37.44Q13.16 35.27 12.41 32.29Q11.65 29.3 11.65 25.83Q11.65 21.53 12.79 18.5Q13.95 15.48 15.87 13.57Q17.13 12.3 18.64 11.5Q19.42 11.08 20.26 10.79Q21.69 10.29 23.16 10.08Q24.24 9.93 25.34 9.93Q29.23 9.93 32.29 10.79Q35.34 11.65 37.65 12.88L40.88 3.81Q40.32 3.46 39.02 2.81Q37.72 2.16 35.77 1.54Q33.83 0.93 31.23 0.47Q28.65 0 25.48 0Q20 0 15.32 1.74Q11.8 3.03 9 5.25Q8.09 5.98 7.25 6.8Q3.88 10.14 1.93 15.01Q0 19.86 0 26.06Q0 38.16 6 44.89Q6.18 45.08 6.36 45.28Q7.07 46.04 7.86 46.71ZM81.63 4.57Q75.65 0.58 64.42 0.58Q61.33 0.58 57.41 0.86Q53.49 1.14 49.81 1.86L49.81 51.04L61.05 51.04L61.05 32.83L66.58 32.83Q68.02 34.55 69.47 36.68Q70.91 38.81 72.38 41.18Q73.86 43.55 75.25 46.08Q76.65 48.6 78.03 51.04L90.63 51.04Q89.33 48.3 87.82 45.47Q86.31 42.62 84.69 40Q83.07 37.37 81.42 34.96Q79.77 32.53 78.25 30.67Q82.79 28.79 85.2 25.52Q87.61 22.25 87.61 16.99Q87.61 11.29 84.87 7.62Q83.57 5.86 81.63 4.57ZM98.84 1.14L98.84 51.04L134.19 51.04L134.19 41.6L110.07 41.6L110.07 29.58L130 29.58L130 20.37L110.07 20.37L110.07 10.58L132.53 10.58L132.53 1.14L98.84 1.14ZM175.11 45.72Q176.08 48.46 176.87 51.04L188.89 51.04Q186.1 42.97 183.57 36.14Q181.05 29.3 178.63 23.25Q176.22 17.2 173.84 11.77Q171.47 6.32 169.03 1.14L158.29 1.14Q155.77 6.32 153.44 11.77Q151.1 17.2 148.67 23.25Q146.26 29.3 143.75 36.14Q141.24 42.97 138.42 51.04L150.1 51.04Q150.89 48.46 151.85 45.72Q152.82 42.97 153.75 40.25L173.19 40.25Q174.14 42.97 175.11 45.72ZM227.48 10.72L227.48 1.14L186.15 1.14L186.15 10.72L201.2 10.72L201.2 51.04L212.43 51.04L212.43 10.72L227.48 10.72ZM235.69 1.14L235.69 51.04L271.04 51.04L271.04 41.6L246.92 41.6L246.92 29.58L266.85 29.58L266.85 20.37L246.92 20.37L246.92 10.58L269.38 10.58L269.38 1.14L235.69 1.14ZM62.87 10.23Q63.84 10.14 65.07 10.14Q70.47 10.14 73.24 11.7Q74.26 12.27 74.91 13.12Q76.02 14.59 76.02 16.91Q76.02 19.53 74.73 21.1Q74.14 21.82 73.28 22.32Q70.54 23.9 64.21 23.9L61.05 23.9L61.05 10.37Q61.91 10.3 62.87 10.23ZM162.33 15.41Q163.05 13.53 163.4 12.46Q163.84 13.53 164.56 15.41Q165.28 17.27 166.25 19.74Q167.22 22.18 168.29 25.13Q169.38 28.07 170.54 31.32L156.35 31.32Q157.5 28.07 158.6 25.13Q159.73 22.18 160.66 19.74Q161.61 17.27 162.33 15.41ZM7.86 140.71Q14.11 146.04 24.9 146.04Q30.6 146.04 34.91 144.9Q39.23 143.74 41.6 142.3L38.51 133.3Q37.58 133.74 36.42 134.25Q35.27 134.74 33.76 135.14Q32.25 135.53 30.3 135.83Q28.37 136.11 25.91 136.11Q22.02 136.11 19.28 134.86Q16.85 133.74 15.23 131.89Q15.03 131.67 14.85 131.44Q13.16 129.27 12.41 126.29Q11.65 123.3 11.65 119.84Q11.65 115.53 12.79 112.51Q13.95 109.48 15.87 107.57Q17.13 106.3 18.64 105.5Q19.42 105.08 20.26 104.79Q21.69 104.29 23.16 104.08Q24.24 103.93 25.34 103.93Q29.23 103.93 32.29 104.79Q35.34 105.65 37.65 106.88L40.88 97.81Q40.32 97.46 39.02 96.81Q37.72 96.16 35.77 95.54Q33.83 94.93 31.23 94.47Q28.65 94 25.48 94Q20 94 15.32 95.74Q11.8 97.03 9 99.25Q8.09 99.98 7.25 100.8Q3.88 104.14 1.93 109.01Q0 113.86 0 120.06Q0 132.16 6 138.89Q6.18 139.08 6.36 139.28Q7.07 140.04 7.86 140.71ZM93.61 131.33Q95.53 126.46 95.53 120.06Q95.53 113.65 93.58 108.8Q91.64 103.93 88.25 100.62Q86.92 99.31 85.4 98.26Q83.08 96.65 80.34 95.65Q80.19 95.59 80.04 95.54Q75.64 94 70.69 94Q66.71 94 63.04 95.05Q62.12 95.32 61.21 95.65Q58.85 96.51 56.79 97.84Q54.92 99.04 53.29 100.62Q49.88 103.93 47.85 108.8Q45.85 113.65 45.85 120.06Q45.85 126.46 47.78 131.33Q49.74 136.18 53.11 139.47Q54.33 140.65 55.7 141.61Q58.14 143.33 61.04 144.39Q61.19 144.45 61.33 144.5Q65.74 146.04 70.69 146.04Q75.94 146.04 80.52 144.39Q83.89 143.17 86.57 141.07Q87.52 140.33 88.39 139.47Q91.71 136.18 93.61 131.33ZM178.85 136.1Q177.3 136.48 174.93 136.48Q170.17 136.48 166.9 135.52Q163.63 134.53 161.39 133.3L158.23 142.23Q159.23 142.81 160.71 143.46Q162.19 144.11 164.23 144.69Q166.28 145.25 168.94 145.64Q171.61 146.04 174.93 146.04Q184.79 146.04 189.68 142.19Q191.42 140.83 192.54 139.07Q194.58 135.87 194.58 131.37Q194.58 127.76 193.65 125.25Q193.14 123.87 192.34 122.68Q191.67 121.7 190.8 120.85Q188.89 118.97 186.01 117.59Q183.14 116.18 179.26 114.74Q177.37 114.09 175.83 113.47Q174.28 112.86 173.09 112.1Q171.91 111.35 171.26 110.41Q171.24 110.39 171.23 110.37Q170.61 109.45 170.61 108.11Q170.61 106.71 171.26 105.75Q171.68 105.13 172.36 104.7Q174.14 103.58 178.17 103.58Q181.77 103.58 184.32 104.4Q186.88 105.23 188.98 106.3L192.21 97.46Q189.84 96.16 186.16 95.08Q182.49 94 177.44 94Q173.21 94 169.82 95.05Q166.42 96.09 164.05 98.04Q162.89 98.99 161.98 100.14Q161.04 101.33 160.38 102.75Q159.09 105.51 159.09 108.97Q159.09 112.43 160.31 114.84Q161.36 116.91 162.94 118.45Q163.2 118.7 163.47 118.94Q165.42 120.63 167.86 121.75Q170.33 122.86 172.77 123.74Q178.38 125.6 180.68 127.22Q182.21 128.28 182.73 129.72Q183 130.46 183 131.3Q183 132.44 182.63 133.39Q182.61 133.43 182.6 133.47Q182.24 134.35 181.33 135Q180.4 135.69 178.85 136.1ZM354.06 140.71Q360.3 146.04 371.1 146.04Q376.79 146.04 381.1 144.9Q385.42 143.74 387.79 142.3L384.7 133.3Q383.77 133.74 382.61 134.25Q381.47 134.74 379.96 135.14Q378.44 135.53 376.49 135.83Q374.56 136.11 372.1 136.11Q368.21 136.11 365.47 134.86Q363.04 133.74 361.42 131.89Q361.23 131.67 361.04 131.44Q359.35 129.27 358.6 126.29Q357.84 123.3 357.84 119.84Q357.84 115.53 358.98 112.51Q360.14 109.48 362.06 107.57Q363.33 106.3 364.83 105.5Q365.61 105.08 366.46 104.79Q367.89 104.29 369.36 104.08Q370.44 103.93 371.54 103.93Q375.42 103.93 378.48 104.79Q381.54 105.65 383.84 106.88L387.07 97.81Q386.51 97.46 385.21 96.81Q383.91 96.16 381.96 95.54Q380.03 94.93 377.42 94.47Q374.84 94 371.68 94Q366.19 94 361.52 95.74Q357.99 97.03 355.19 99.25Q354.28 99.98 353.45 100.8Q350.07 104.14 348.12 109.01Q346.19 113.86 346.19 120.06Q346.19 132.16 352.19 138.89Q352.37 139.08 352.55 139.28Q353.27 140.04 354.06 140.71ZM512.08 131.33Q513.99 126.46 513.99 120.06Q513.99 113.65 512.04 108.8Q510.11 103.93 506.71 100.62Q505.38 99.31 503.87 98.26Q501.55 96.65 498.8 95.65Q498.66 95.59 498.51 95.54Q494.1 94 489.15 94Q485.18 94 481.51 95.05Q480.58 95.32 479.68 95.65Q477.32 96.51 475.25 97.84Q473.38 99.04 471.75 100.62Q468.34 103.93 466.32 108.8Q464.32 113.65 464.32 120.06Q464.32 126.46 466.25 131.33Q468.2 136.18 471.58 139.47Q472.8 140.65 474.17 141.61Q476.6 143.33 479.5 144.39Q479.65 144.45 479.8 144.5Q484.2 146.04 489.15 146.04Q494.41 146.04 498.98 144.39Q502.35 143.17 505.04 141.07Q505.99 140.33 506.85 139.47Q510.18 136.18 512.08 131.33ZM279.81 98.57Q273.84 94.58 262.6 94.58Q259.51 94.58 255.59 94.86Q251.67 95.14 248 95.86L248 145.04L259.23 145.04L259.23 126.83L264.77 126.83Q266.21 128.55 267.65 130.68Q269.09 132.81 270.57 135.18Q272.04 137.55 273.43 140.09Q274.84 142.6 276.21 145.04L288.81 145.04Q287.51 142.3 286 139.47Q284.49 136.62 282.87 134Q281.26 131.37 279.6 128.96Q277.95 126.53 276.44 124.67Q280.97 122.79 283.38 119.52Q285.79 116.25 285.79 110.99Q285.79 105.29 283.06 101.62Q281.75 99.86 279.81 98.57ZM128.92 128.13Q134.55 136.48 139.36 145.04L148.8 145.04L148.8 95.14L137.64 95.14L137.64 124.6Q135.06 120.71 132.1 116.5Q129.15 112.28 126.16 108.36Q123.17 104.44 120.29 100.99Q117.41 97.53 115.03 95.14L105.89 95.14L105.89 145.04L116.97 145.04L116.97 112.35Q123.31 119.77 128.92 128.13ZM239.79 104.72L239.79 95.14L198.47 95.14L198.47 104.72L213.51 104.72L213.51 145.04L224.74 145.04L224.74 104.72L239.79 104.72ZM306.89 144.57Q310.7 146.04 315.96 146.04Q321.28 146.04 325.17 144.62Q329.05 143.18 331.57 140.54Q332.16 139.93 332.68 139.25Q334.38 137.05 335.31 134.25Q336.54 130.58 336.54 126.18L336.54 95.14L325.31 95.14L325.31 125.25Q325.31 131.3 322.74 133.81Q322.05 134.5 321.24 134.99Q319.08 136.32 316.1 136.32Q314.08 136.32 312.39 135.76Q311.57 135.48 310.88 135.03Q310.13 134.54 309.51 133.85Q308.33 132.51 307.64 130.4Q306.96 128.27 306.96 125.25L306.96 95.14L295.72 95.14L295.72 126.18Q295.72 130.58 296.9 134.21Q297.83 137.03 299.53 139.24Q300.02 139.88 300.58 140.47Q303.07 143.09 306.89 144.57ZM434.52 104.72L434.52 95.14L393.19 95.14L393.19 104.72L408.24 104.72L408.24 145.04L419.47 145.04L419.47 104.72L434.52 104.72ZM453.96 95.14L442.73 95.14L442.73 145.04L453.96 145.04L453.96 95.14ZM547.38 128.13Q553.01 136.48 557.83 145.04L567.27 145.04L567.27 95.14L556.1 95.14L556.1 124.6Q553.52 120.71 550.57 116.5Q547.61 112.28 544.63 108.36Q541.64 104.44 538.75 100.99Q535.87 97.53 533.5 95.14L524.36 95.14L524.36 145.04L535.43 145.04L535.43 112.35Q541.78 119.77 547.38 128.13ZM58.33 126.69Q57.44 123.74 57.44 120.06Q57.44 116.46 58.33 113.47Q59.25 110.48 60.93 108.36Q61.79 107.28 62.83 106.45Q63.85 105.64 65.06 105.05Q67.52 103.86 70.69 103.86Q73.78 103.86 76.26 105.02Q77.64 105.65 78.76 106.57Q79.69 107.33 80.44 108.29Q82.13 110.41 83.03 113.4Q83.94 116.39 83.94 120.06Q83.94 123.74 83.03 126.69Q82.13 129.63 80.44 131.75Q79.71 132.68 78.82 133.42Q77.67 134.39 76.26 135.04Q73.78 136.18 70.69 136.18Q67.52 136.18 65.06 135.04Q63.89 134.48 62.89 133.7Q61.81 132.86 60.93 131.75Q59.25 129.63 58.33 126.69ZM476.8 126.69Q475.9 123.74 475.9 120.06Q475.9 116.46 476.8 113.47Q477.71 110.48 479.4 108.36Q480.25 107.28 481.29 106.45Q482.32 105.64 483.53 105.05Q485.99 103.86 489.15 103.86Q492.25 103.86 494.73 105.02Q496.1 105.65 497.23 106.57Q498.15 107.33 498.91 108.29Q500.6 110.41 501.49 113.4Q502.41 116.39 502.41 120.06Q502.41 123.74 501.49 126.69Q500.6 129.63 498.91 131.75Q498.17 132.68 497.29 133.42Q496.13 134.39 494.73 135.04Q492.25 136.18 489.15 136.18Q485.99 136.18 483.53 135.04Q482.35 134.48 481.35 133.7Q480.27 132.86 479.4 131.75Q477.71 129.63 476.8 126.69ZM261.06 104.23Q262.02 104.14 263.26 104.14Q268.65 104.14 271.43 105.7Q272.45 106.27 273.09 107.12Q274.21 108.59 274.21 110.91Q274.21 113.53 272.92 115.1Q272.33 115.82 271.46 116.32Q268.72 117.9 262.39 117.9L259.23 117.9L259.23 104.37Q260.09 104.3 261.06 104.23Z" fill="#FFFFFF" fill-opacity="1.000000" fill-rule="evenodd"/>
	<path id="CREATEX CONSTRUCTION" d="M304.38 42.59Q306.88 46.86 308.97 51.04L322.43 51.04Q320.06 46.51 315.95 39.84Q311.85 33.18 305.81 25.34L321.64 1.14L308.83 1.14L299.32 16.69L289.6 1.14L275.99 1.14L292.04 25.2Q286.86 32.39 282.64 38.81Q278.44 45.21 275.27 51.04L288.09 51.04Q288.74 49.67 290.11 47.3Q291.48 44.92 293.03 42.34Q294.57 39.74 296.12 37.44Q297.67 35.13 298.67 33.83Q301.9 38.3 304.38 42.59Z" fill="#FF5A30" fill-opacity="1.000000" fill-rule="evenodd"/>
</svg>
